<?xml version="1.0" encoding="UTF-8" standalone="no"?>
<!-- Created with Inkscape (http://www.inkscape.org/) -->

<svg
   xmlns:dc="http://purl.org/dc/elements/1.1/"
   xmlns:cc="http://creativecommons.org/ns#"
   xmlns:rdf="http://www.w3.org/1999/02/22-rdf-syntax-ns#"
   xmlns:svg="http://www.w3.org/2000/svg"
   xmlns="http://www.w3.org/2000/svg"
   xmlns:xlink="http://www.w3.org/1999/xlink"
   xmlns:sodipodi="http://sodipodi.sourceforge.net/DTD/sodipodi-0.dtd"
   xmlns:inkscape="http://www.inkscape.org/namespaces/inkscape"
   width="744.09448819"
   height="1052.3622047"
   id="svg2"
   version="1.1"
   inkscape:version="0.48.5 r10040"
   sodipodi:docname="New document 1">
  <defs
     id="defs4">
    <linearGradient
       inkscape:collect="always"
       id="linearGradient5260">
      <stop
         style="stop-color:#0000ff;stop-opacity:1;"
         offset="0"
         id="stop5262" />
      <stop
         style="stop-color:#0000ff;stop-opacity:0;"
         offset="1"
         id="stop5264" />
    </linearGradient>
    <linearGradient
       inkscape:collect="always"
       xlink:href="#linearGradient5260"
       id="linearGradient5266"
       x1="36.11803"
       y1="35.391106"
       x2="37.623106"
       y2="35.391106"
       gradientUnits="userSpaceOnUse"
       gradientTransform="matrix(1.565391,0,0,1.5832353,71.374905,10.492237)" />
    <linearGradient
       inkscape:collect="always"
       xlink:href="#linearGradient5260-1"
       id="linearGradient5266-9"
       x1="36.118031"
       y1="35.391106"
       x2="37.623104"
       y2="35.391106"
       gradientUnits="userSpaceOnUse"
       gradientTransform="matrix(1.565391,0,0,1.5832353,195.70469,10.385222)" />
    <linearGradient
       inkscape:collect="always"
       id="linearGradient5260-1">
      <stop
         style="stop-color:#0000ff;stop-opacity:1;"
         offset="0"
         id="stop5262-8" />
      <stop
         style="stop-color:#0000ff;stop-opacity:0;"
         offset="1"
         id="stop5264-5" />
    </linearGradient>
    <linearGradient
       inkscape:collect="always"
       xlink:href="#linearGradient5260-1-4"
       id="linearGradient5266-9-0"
       x1="36.118031"
       y1="35.391106"
       x2="37.623104"
       y2="35.391106"
       gradientUnits="userSpaceOnUse"
       gradientTransform="matrix(1.565391,0,0,1.5832353,327.27553,10.689091)" />
    <linearGradient
       inkscape:collect="always"
       id="linearGradient5260-1-4">
      <stop
         style="stop-color:#0000ff;stop-opacity:1;"
         offset="0"
         id="stop5262-8-7" />
      <stop
         style="stop-color:#0000ff;stop-opacity:0;"
         offset="1"
         id="stop5264-5-4" />
    </linearGradient>
    <linearGradient
       inkscape:collect="always"
       xlink:href="#linearGradient5260-1-9"
       id="linearGradient5266-9-9"
       x1="36.118031"
       y1="35.391106"
       x2="37.623104"
       y2="35.391106"
       gradientUnits="userSpaceOnUse"
       gradientTransform="matrix(-1.565391,0,0,-1.5832353,563.08782,123.32029)" />
    <linearGradient
       inkscape:collect="always"
       id="linearGradient5260-1-9">
      <stop
         style="stop-color:#0000ff;stop-opacity:1;"
         offset="0"
         id="stop5262-8-2" />
      <stop
         style="stop-color:#0000ff;stop-opacity:0;"
         offset="1"
         id="stop5264-5-2" />
    </linearGradient>
  </defs>
  <sodipodi:namedview
     id="base"
     pagecolor="#ffffff"
     bordercolor="#666666"
     borderopacity="1.0"
     inkscape:pageopacity="0.0"
     inkscape:pageshadow="2"
     inkscape:zoom="1.28"
     inkscape:cx="331.43989"
     inkscape:cy="1083.5951"
     inkscape:document-units="px"
     inkscape:current-layer="layer1"
     showgrid="false"
     inkscape:window-width="1600"
     inkscape:window-height="834"
     inkscape:window-x="0"
     inkscape:window-y="27"
     inkscape:window-maximized="1" />
  <metadata
     id="metadata7">
    <rdf:RDF>
      <cc:Work
         rdf:about="">
        <dc:format>image/svg+xml</dc:format>
        <dc:type
           rdf:resource="http://purl.org/dc/dcmitype/StillImage" />
        <dc:title></dc:title>
      </cc:Work>
    </rdf:RDF>
  </metadata>
  <g
     inkscape:label="Layer 1"
     inkscape:groupmode="layer"
     id="layer1">
    <rect
       style="fill:#0000ff;fill-rule:evenodd;stroke:#000000;stroke-width:1.57428789px;stroke-linecap:butt;stroke-linejoin:miter;stroke-opacity:1"
       id="rect2987"
       width="23.323933"
       height="22.790155"
       x="128.43835"
       y="70.511009" />
    <rect
       style="fill:#0000ff;fill-opacity:1;fill-rule:evenodd;stroke:#000000;stroke-width:1.57428789px;stroke-linecap:butt;stroke-linejoin:miter;stroke-opacity:1"
       id="rect2987-9"
       width="23.323933"
       height="22.790155"
       x="151.95995"
       y="71.360268" />
    <rect
       style="fill:#0000ff;fill-rule:evenodd;stroke:#000000;stroke-width:1.57428789px;stroke-linecap:butt;stroke-linejoin:miter;stroke-opacity:1"
       id="rect2987-95"
       width="23.323933"
       height="22.790155"
       x="175.81642"
       y="71.360268" />
    <rect
       style="fill:#0000ff;fill-rule:evenodd;stroke:#000000;stroke-width:1.57428789px;stroke-linecap:butt;stroke-linejoin:miter;stroke-opacity:1"
       id="rect2987-0"
       width="23.323933"
       height="22.790155"
       x="152.35527"
       y="47.121117" />
    <path
       style="fill:url(#linearGradient5266);fill-opacity:1;stroke:#000000;stroke-width:1.57428789px;stroke-linecap:butt;stroke-linejoin:miter;stroke-opacity:1"
       d="M 129.48708,11.748347 128.69644,121.30103"
       id="path3824"
       inkscape:connector-curvature="0" />
    <path
       style="fill:none;stroke:#000000;stroke-width:1.92591703px;stroke-linecap:butt;stroke-linejoin:miter;stroke-opacity:1"
       d="m 200.24952,11.542058 0.79064,112.496012"
       id="path5268"
       inkscape:connector-curvature="0" />
    <path
       sodipodi:type="arc"
       style="fill:#000080;fill-opacity:1"
       id="path5270"
       sodipodi:cx="60.861691"
       sodipodi:cy="33.118263"
       sodipodi:rx="1.767767"
       sodipodi:ry="2.0203052"
       d="m 62.629457,33.118263 a 1.767767,2.0203052 0 1 1 -3.535533,0 1.767767,2.0203052 0 1 1 3.535533,0 z"
       transform="matrix(1.565391,0,0,1.5832353,70.326175,29.121865)" />
    <path
       sodipodi:type="arc"
       style="fill:#000000;fill-opacity:1"
       id="path5288"
       sodipodi:cx="62.124382"
       sodipodi:cy="32.739456"
       sodipodi:rx="2.7779195"
       sodipodi:ry="2.9041886"
       d="m 64.902302,32.739456 a 2.7779195,2.9041886 0 1 1 -5.55584,0 2.7779195,2.9041886 0 1 1 5.55584,0 z"
       transform="matrix(1.565391,0,0,1.5832353,67.16361,29.272173)" />
    <text
       xml:space="preserve"
       style="font-size:40px;font-style:normal;font-weight:normal;line-height:125%;letter-spacing:0px;word-spacing:0px;fill:#000000;fill-opacity:1;stroke:none;font-family:Sans"
       x="19.697975"
       y="65.443146"
       id="text5290"
       sodipodi:linespacing="125%"><tspan
         sodipodi:role="line"
         id="tspan5292"
         x="19.697975"
         y="65.443146" /></text>
    <rect
       style="fill:#0000ff;fill-rule:evenodd;stroke:#000000;stroke-width:1.57428789px;stroke-linecap:butt;stroke-linejoin:miter;stroke-opacity:1"
       id="rect2987-05"
       width="23.323933"
       height="22.790155"
       x="275.63754"
       y="69.754654" />
    <rect
       style="fill:#0000ff;fill-opacity:1;fill-rule:evenodd;stroke:#000000;stroke-width:1.57428789px;stroke-linecap:butt;stroke-linejoin:miter;stroke-opacity:1"
       id="rect2987-9-1"
       width="23.323933"
       height="22.790155"
       x="275.63632"
       y="45.928768" />
    <rect
       style="fill:#0000ff;fill-rule:evenodd;stroke:#000000;stroke-width:1.57428789px;stroke-linecap:butt;stroke-linejoin:miter;stroke-opacity:1"
       id="rect2987-95-2"
       width="23.323933"
       height="22.790155"
       x="299.49277"
       y="45.279423" />
    <rect
       style="fill:#0000ff;fill-rule:evenodd;stroke:#000000;stroke-width:1.57428789px;stroke-linecap:butt;stroke-linejoin:miter;stroke-opacity:1"
       id="rect2987-0-5"
       width="23.323933"
       height="22.790155"
       x="276.03162"
       y="21.689608" />
    <path
       style="fill:url(#linearGradient5266-9);fill-opacity:1;stroke:#000000;stroke-width:1.57428789px;stroke-linecap:butt;stroke-linejoin:miter;stroke-opacity:1"
       d="M 253.81687,11.641332 253.02622,121.194"
       id="path3824-8"
       inkscape:connector-curvature="0" />
    <path
       style="fill:none;stroke:#000000;stroke-width:1.92591703px;stroke-linecap:butt;stroke-linejoin:miter;stroke-opacity:1"
       d="m 324.5793,11.435044 0.79065,112.496016"
       id="path5268-2"
       inkscape:connector-curvature="0" />
    <path
       sodipodi:type="arc"
       style="fill:#000080;fill-opacity:1"
       id="path5270-9"
       sodipodi:cx="60.861691"
       sodipodi:cy="33.118263"
       sodipodi:rx="1.767767"
       sodipodi:ry="2.0203052"
       d="m 62.629457,33.118263 a 1.767767,2.0203052 0 1 1 -3.535533,0 1.767767,2.0203052 0 1 1 3.535533,0 z"
       transform="matrix(1.565391,0,0,1.5832353,194.00255,4.989047)" />
    <path
       sodipodi:type="arc"
       style="fill:#000000;fill-opacity:1"
       id="path5288-3"
       sodipodi:cx="62.124382"
       sodipodi:cy="32.739456"
       sodipodi:rx="2.7779195"
       sodipodi:ry="2.9041886"
       d="m 64.902302,32.739456 a 2.7779195,2.9041886 0 1 1 -5.55584,0 2.7779195,2.9041886 0 1 1 5.55584,0 z"
       transform="matrix(1.565391,0,0,1.5832353,190.18656,6.4380476)" />
    <rect
       style="fill:#0000ff;fill-rule:evenodd;stroke:#000000;stroke-width:1.57428789px;stroke-linecap:butt;stroke-linejoin:miter;stroke-opacity:1"
       id="rect2987-05-0"
       width="23.323933"
       height="22.790155"
       x="408.72443"
       y="69.054123" />
    <rect
       style="fill:#0000ff;fill-opacity:1;fill-rule:evenodd;stroke:#000000;stroke-width:1.57428789px;stroke-linecap:butt;stroke-linejoin:miter;stroke-opacity:1"
       id="rect2987-9-1-0"
       width="23.323933"
       height="22.790155"
       x="408.72318"
       y="45.22823" />
    <rect
       style="fill:#0000ff;fill-rule:evenodd;stroke:#000000;stroke-width:1.57428789px;stroke-linecap:butt;stroke-linejoin:miter;stroke-opacity:1"
       id="rect2987-95-2-5"
       width="23.323933"
       height="22.790155"
       x="433.08496"
       y="45.081089" />
    <rect
       style="fill:#0000ff;fill-rule:evenodd;stroke:#000000;stroke-width:1.57428789px;stroke-linecap:butt;stroke-linejoin:miter;stroke-opacity:1"
       id="rect2987-0-5-1"
       width="23.323933"
       height="22.790155"
       x="384.86182"
       y="45.09481" />
    <path
       style="fill:url(#linearGradient5266-9-0);fill-opacity:1;stroke:#000000;stroke-width:1.57428789px;stroke-linecap:butt;stroke-linejoin:miter;stroke-opacity:1"
       d="m 385.38768,11.9452 -0.79063,109.55268"
       id="path3824-8-2"
       inkscape:connector-curvature="0" />
    <path
       style="fill:none;stroke:#000000;stroke-width:1.92591703px;stroke-linecap:butt;stroke-linejoin:miter;stroke-opacity:1"
       d="m 457.66618,10.734506 0.79061,112.496014"
       id="path5268-2-0"
       inkscape:connector-curvature="0" />
    <path
       sodipodi:type="arc"
       style="fill:#000080;fill-opacity:1"
       id="path5270-9-2"
       sodipodi:cx="60.861691"
       sodipodi:cy="33.118263"
       sodipodi:rx="1.767767"
       sodipodi:ry="2.0203052"
       d="m 62.629457,33.118263 a 1.767767,2.0203052 0 1 1 -3.535533,0 1.767767,2.0203052 0 1 1 3.535533,0 z"
       transform="matrix(1.565391,0,0,1.5832353,327.08942,4.2885095)" />
    <path
       sodipodi:type="arc"
       style="fill:#000000;fill-opacity:1"
       id="path5288-3-1"
       sodipodi:cx="62.124382"
       sodipodi:cy="32.739456"
       sodipodi:rx="2.7779195"
       sodipodi:ry="2.9041886"
       d="m 64.902302,32.739456 a 2.7779195,2.9041886 0 1 1 -5.55584,0 2.7779195,2.9041886 0 1 1 5.55584,0 z"
       transform="matrix(1.565391,0,0,1.5832353,323.27345,5.73751)" />
    <rect
       style="fill:#0000ff;fill-rule:evenodd;stroke:#000000;stroke-width:1.57428789px;stroke-linecap:butt;stroke-linejoin:miter;stroke-opacity:1"
       id="rect2987-05-4"
       width="23.323933"
       height="22.790155"
       x="529.10303"
       y="70.62484" />
    <rect
       style="fill:#0000ff;fill-opacity:1;fill-rule:evenodd;stroke:#000000;stroke-width:1.57428789px;stroke-linecap:butt;stroke-linejoin:miter;stroke-opacity:1"
       id="rect2987-9-1-2"
       width="23.323933"
       height="22.790155"
       x="529.10175"
       y="46.798943" />
    <rect
       style="fill:#0000ff;fill-rule:evenodd;stroke:#000000;stroke-width:1.57428789px;stroke-linecap:butt;stroke-linejoin:miter;stroke-opacity:1"
       id="rect2987-95-2-1"
       width="23.323933"
       height="22.790155"
       x="-530.29553"
       y="-68.939751"
       transform="scale(-1,-1)" />
    <rect
       style="fill:#0000ff;fill-rule:evenodd;stroke:#000000;stroke-width:1.57428789px;stroke-linecap:butt;stroke-linejoin:miter;stroke-opacity:1"
       id="rect2987-0-5-7"
       width="23.323933"
       height="22.790155"
       x="529.49707"
       y="22.55978" />
    <path
       style="fill:url(#linearGradient5266-9-9);fill-opacity:1;stroke:#000000;stroke-width:1.57428789px;stroke-linecap:butt;stroke-linejoin:miter;stroke-opacity:1"
       d="M 504.97563,122.06419 505.76628,12.5115"
       id="path3824-8-0"
       inkscape:connector-curvature="0" />
    <path
       style="fill:none;stroke:#000000;stroke-width:1.92591703px;stroke-linecap:butt;stroke-linejoin:miter;stroke-opacity:1"
       d="M 577.31935,124.80124 576.52871,12.305203"
       id="path5268-2-8"
       inkscape:connector-curvature="0" />
    <path
       sodipodi:type="arc"
       style="fill:#000080;fill-opacity:1"
       id="path5270-9-8"
       sodipodi:cx="60.861691"
       sodipodi:cy="33.118263"
       sodipodi:rx="1.767767"
       sodipodi:ry="2.0203052"
       d="m 62.629457,33.118263 a 1.767767,2.0203052 0 1 1 -3.535533,0 1.767767,2.0203052 0 1 1 3.535533,0 z"
       transform="matrix(1.565391,0,0,1.5832353,447.46799,5.8592165)" />
    <path
       sodipodi:type="arc"
       style="fill:#000000;fill-opacity:1"
       id="path5288-3-7"
       sodipodi:cx="62.124382"
       sodipodi:cy="32.739456"
       sodipodi:rx="2.7779195"
       sodipodi:ry="2.9041886"
       d="m 64.902302,32.739456 a 2.7779195,2.9041886 0 1 1 -5.55584,0 2.7779195,2.9041886 0 1 1 5.55584,0 z"
       transform="matrix(1.565391,0,0,1.5832353,443.65203,7.3082173)" />
    <text
       xml:space="preserve"
       style="font-size:11.92759323px;font-style:normal;font-weight:normal;line-height:125%;letter-spacing:0px;word-spacing:0px;fill:#0000ff;fill-opacity:1;stroke:none;font-family:Sans"
       x="315.45453"
       y="169.13625"
       id="text5469"
       sodipodi:linespacing="125%"
       transform="scale(0.96846156,1.0325655)"><tspan
         sodipodi:role="line"
         id="tspan5471"
         x="315.45453"
         y="169.13625">Farbcode =0000ffff </tspan></text>
    <path
       style="fill:none;stroke:#000000;stroke-width:0.54140049px;stroke-linecap:butt;stroke-linejoin:miter;stroke-opacity:1"
       d="m 344.12705,192.06409 0,78.24929"
       id="path5473"
       inkscape:connector-curvature="0" />
    <path
       style="fill:none;stroke:#000000;stroke-width:0.54140049px;stroke-linecap:butt;stroke-linejoin:miter;stroke-opacity:1"
       d="m 389.80771,195.44784 -0.84594,72.75069"
       id="path5475"
       inkscape:connector-curvature="0" />
    <rect
       style="fill:#0000ff;fill-opacity:1;stroke:#000000;stroke-width:0.54140049"
       id="rect5485"
       width="21.571426"
       height="21.571426"
       x="345.20984"
       y="208.55989" />
    <rect
       style="fill:#0000ff;fill-opacity:1;stroke:#000000;stroke-width:0.54140049"
       id="rect5485-2"
       width="21.571426"
       height="21.571426"
       x="367.17886"
       y="208.77138" />
    <rect
       style="fill:#0000ff;fill-opacity:1;stroke:#000000;stroke-width:0.54140049"
       id="rect5485-25"
       width="21.571426"
       height="21.571426"
       x="367.17886"
       y="230.76576" />
    <rect
       style="fill:#0000ff;fill-opacity:1;stroke:#000000;stroke-width:0.54140049"
       id="rect5485-0"
       width="21.571426"
       height="21.571426"
       x="345.18448"
       y="230.76576" />
    <path
       style="fill:#ffff00;fill-opacity:1;stroke:#000000;stroke-width:0.42296916"
       d="m 345.61412,219.40666 0,-10.36275 10.36275,0 10.36274,0 0,10.36275 0,10.36275 -10.36274,0 -10.36275,0 0,-10.36275 z"
       id="path5555"
       inkscape:connector-curvature="0" />
    <path
       style="fill:#ffff00;fill-opacity:1;stroke:#000000;stroke-width:0.42296916"
       d="m 345.61412,241.40106 0,-10.36274 10.36275,0 10.36274,0 0,10.36274 0,10.36274 -10.36274,0 -10.36275,0 0,-10.36274 z"
       id="path5557"
       inkscape:connector-curvature="0" />
    <path
       style="fill:#ffff00;fill-opacity:1;stroke:#000000;stroke-width:0.42296916"
       d="m 367.60851,241.40106 0,-10.36274 10.36275,0 10.36274,0 0,10.36274 0,10.36274 -10.36274,0 -10.36275,0 0,-10.36274 z"
       id="path5559"
       inkscape:connector-curvature="0" />
    <path
       style="fill:#ffff00;fill-opacity:1;stroke:#000000;stroke-width:0.42296916"
       d="m 367.60851,219.40666 0,-10.36275 10.36275,0 10.36274,0 0,10.36275 0,10.36275 -10.36274,0 -10.36275,0 0,-10.36275 z"
       id="path5561"
       inkscape:connector-curvature="0" />
    <text
       xml:space="preserve"
       style="font-size:40px;font-style:normal;font-weight:normal;line-height:125%;letter-spacing:0px;word-spacing:0px;fill:#000000;fill-opacity:1;stroke:none;font-family:Sans"
       x="42.96875"
       y="530.48718"
       id="text5563"
       sodipodi:linespacing="125%"><tspan
         sodipodi:role="line"
         id="tspan5565"></tspan></text>
    <text
       xml:space="preserve"
       style="font-size:11.92759323px;font-style:normal;font-weight:normal;line-height:125%;letter-spacing:0px;word-spacing:0px;fill:#ffff00;fill-opacity:1;stroke:none;font-family:Sans"
       x="321.61099"
       y="315.17899"
       id="text5469-4"
       sodipodi:linespacing="125%"
       transform="scale(0.96846156,1.0325655)"><tspan
         sodipodi:role="line"
         id="tspan5471-6"
         x="321.61099"
         y="315.17899"
         style="fill:#808000"><tspan
           style="fill:#ffff00"
           id="tspan5588"><tspan
             style="fill:#f9ff00;fill-opacity:1"
             id="tspan5590"><tspan
               style="fill:#f8ff00;fill-opacity:1"
               id="tspan5592"><tspan
                 style="fill:#f7ff00;fill-opacity:1"
                 id="tspan5594"><tspan
                   style="fill:#f5ff00;fill-opacity:1"
                   id="tspan5596"><tspan
                     style="fill:#f1ff00;fill-opacity:1"
                     id="tspan5598"><tspan
                       style="fill:#f0ff00;fill-opacity:1"
                       id="tspan5600"><tspan
                         style="fill:#eeff00;fill-opacity:1"
                         id="tspan5602"><tspan
                           style="fill:#eefa00;fill-opacity:1"
                           id="tspan5606"><tspan
                             style="fill:#eef900;fill-opacity:1"
                             id="tspan5608"><tspan
                               style="fill:#eef700;fill-opacity:1"
                               id="tspan5610"><tspan
                                 style="fill:#eef600;fill-opacity:1"
                                 id="tspan5612"><tspan
                                   style="fill:#eef400;fill-opacity:1"
                                   id="tspan5614"><tspan
                                   style="fill:#eef000;fill-opacity:1"
                                   id="tspan5616"><tspan
                                   style="fill:#eeef00;fill-opacity:1"
                                   id="tspan5618"><tspan
                                   style="fill:#eeed00;fill-opacity:1"
                                   id="tspan5620"><tspan
                                   style="fill:#eeec00;fill-opacity:1"
                                   id="tspan5622"><tspan
                                   style="fill:#eee800;fill-opacity:1"
                                   id="tspan5624"><tspan
                                   style="fill:#eee900;fill-opacity:1"
                                   id="tspan5628"><tspan
                                   style="fill:#eee600;fill-opacity:1"
                                   id="tspan5632"><tspan
                                   style="fill:#eee400;fill-opacity:1"
                                   id="tspan5634"><tspan
                                   style="fill:#eee200;fill-opacity:1"
                                   id="tspan5636"><tspan
                                   style="fill:#eee100;fill-opacity:1"
                                   id="tspan5638"><tspan
                                   style="fill:#eede00;fill-opacity:1"
                                   id="tspan5640"><tspan
                                   style="fill:#eeda00;fill-opacity:1"
                                   id="tspan5642"><tspan
                                   style="fill:#eed900;fill-opacity:1"
                                   id="tspan5644"><tspan
                                   style="fill:#eed800;fill-opacity:1"
                                   id="tspan5646"><tspan
                                   style="fill:#eed500;fill-opacity:1"
                                   id="tspan5648"><tspan
                                   style="fill:#eed400;fill-opacity:1"
                                   id="tspan5650"><tspan
                                   style="fill:#eed300;fill-opacity:1"
                                   id="tspan5652"><tspan
                                   style="fill:#eed100;fill-opacity:1"
                                   id="tspan5654"><tspan
                                   style="fill:#eece00;fill-opacity:1"
                                   id="tspan5656"><tspan
                                   style="fill:#eecd00;fill-opacity:1"
                                   id="tspan5658"><tspan
                                   style="fill:#eeca00;fill-opacity:1"
                                   id="tspan5660"><tspan
                                   style="fill:#eec800;fill-opacity:1"
                                   id="tspan5662"><tspan
                                   style="fill:#eec300;fill-opacity:1"
                                   id="tspan5664"><tspan
                                   style="fill:#eec100;fill-opacity:1"
                                   id="tspan5666"><tspan
                                   style="fill:#eebf00;fill-opacity:1"
                                   id="tspan5668"><tspan
                                   style="fill:#e9bf00;fill-opacity:1"
                                   id="tspan5672"><tspan
                                   style="fill:#e8bf00;fill-opacity:1"
                                   id="tspan5674"><tspan
                                   style="fill:#e7bf00;fill-opacity:1"
                                   id="tspan5676"><tspan
                                   style="fill:#e5bf00;fill-opacity:1"
                                   id="tspan5678"><tspan
                                   style="fill:#e2bf00;fill-opacity:1"
                                   id="tspan5680"><tspan
                                   style="fill:#dfbf00;fill-opacity:1"
                                   id="tspan5682"><tspan
                                   style="fill:#debf00;fill-opacity:1"
                                   id="tspan5684"><tspan
                                   style="fill:#ddbf00;fill-opacity:1"
                                   id="tspan5686"><tspan
                                   style="fill:#d8bf00;fill-opacity:1"
                                   id="tspan5688"><tspan
                                   style="fill:#d6bf00;fill-opacity:1"
                                   id="tspan5690"><tspan
                                   style="fill:#d4bf00;fill-opacity:1"
                                   id="tspan5692"><tspan
                                   style="fill:#d1bf00;fill-opacity:1"
                                   id="tspan5694"><tspan
                                   style="fill:#cfbf00;fill-opacity:1"
                                   id="tspan5696"><tspan
                                   style="fill:#cebf00;fill-opacity:1"
                                   id="tspan5698"><tspan
                                   style="fill:#cdbf00;fill-opacity:1"
                                   id="tspan5700"><tspan
                                   style="fill:#ccbf00;fill-opacity:1"
                                   id="tspan5702"><tspan
                                   style="fill:#cbbf00;fill-opacity:1"
                                   id="tspan5704"><tspan
                                   style="fill:#c9bf00;fill-opacity:1"
                                   id="tspan5706"><tspan
                                   style="fill:#c8bf00;fill-opacity:1"
                                   id="tspan5708"><tspan
                                   style="fill:#c7bf00;fill-opacity:1"
                                   id="tspan5710"><tspan
                                   style="fill:#c4bf00;fill-opacity:1"
                                   id="tspan5712"><tspan
                                   style="fill:#c3bf00;fill-opacity:1"
                                   id="tspan5714"><tspan
                                   style="fill:#c2bf00;fill-opacity:1"
                                   id="tspan5716"><tspan
                                   style="fill:#c1bf00;fill-opacity:1"
                                   id="tspan5718"><tspan
                                   style="fill:#c0bf00;fill-opacity:1"
                                   id="tspan5720"><tspan
                                   style="fill:#bfbf00;fill-opacity:1"
                                   id="tspan5722">Farbcode = ffff00ff </tspan></tspan></tspan></tspan></tspan></tspan></tspan></tspan></tspan></tspan></tspan></tspan></tspan></tspan></tspan></tspan></tspan></tspan></tspan></tspan></tspan></tspan></tspan></tspan></tspan></tspan></tspan></tspan></tspan></tspan></tspan></tspan></tspan></tspan></tspan></tspan></tspan></tspan></tspan></tspan></tspan></tspan></tspan></tspan></tspan></tspan></tspan></tspan></tspan></tspan></tspan></tspan></tspan></tspan></tspan></tspan></tspan></tspan></tspan></tspan></tspan></tspan></tspan></tspan></tspan></text>
    <text
       xml:space="preserve"
       style="font-size:15.41755104px;font-style:normal;font-weight:normal;line-height:125%;letter-spacing:0px;word-spacing:0px;fill:#000000;fill-opacity:1;stroke:none;font-family:Sans"
       x="248.4545"
       y="281.32101"
       id="text5726"
       sodipodi:linespacing="125%"
       transform="scale(0.93253196,1.0723493)"><tspan
         sodipodi:role="line"
         id="tspan5728"
         x="248.4545"
         y="281.32101">You don't have to rotate a square :D</tspan></text>
    <path
       style="fill:none;stroke:#000000;stroke-width:0.74849719px;stroke-linecap:butt;stroke-linejoin:miter;stroke-opacity:1"
       d="m 142.8255,356.90448 -0.6089,131.97105"
       id="path5730"
       inkscape:connector-curvature="0" />
    <path
       style="fill:none;stroke:#000000;stroke-width:0.74849719px;stroke-linecap:butt;stroke-linejoin:miter;stroke-opacity:1"
       d="m 211.93623,356.06211 -0.60891,131.97104"
       id="path5730-5"
       inkscape:connector-curvature="0" />
    <rect
       style="fill:#ff0000;fill-opacity:1;stroke:#000000;stroke-width:0.74849719"
       id="rect5754"
       width="20.702772"
       height="18.532104"
       x="168.39952"
       y="388.35291" />
    <rect
       style="fill:#ff0000;fill-opacity:1;stroke:#000000;stroke-width:0.74849719"
       id="rect5754-6"
       width="20.702772"
       height="18.532104"
       x="168.39952"
       y="407.16577" />
    <rect
       style="fill:#ff0000;fill-opacity:1;stroke:#000000;stroke-width:0.74849719"
       id="rect5754-2"
       width="20.702772"
       height="18.532104"
       x="168.39952"
       y="425.69791" />
    <rect
       style="fill:#ff0000;fill-opacity:1;stroke:#000000;stroke-width:0.74849719"
       id="rect5754-22"
       width="20.702772"
       height="18.532104"
       x="189.7112"
       y="425.69791" />
    <path
       sodipodi:type="arc"
       style="fill:#000000;fill-opacity:1;stroke:#000000"
       id="path5788"
       sodipodi:cx="70.3125"
       sodipodi:cy="685.56531"
       sodipodi:rx="5.46875"
       sodipodi:ry="5.859375"
       d="m 75.78125,685.56531 a 5.46875,5.859375 0 1 1 -10.9375,0 5.46875,5.859375 0 1 1 10.9375,0 z"
       transform="matrix(0.77939847,0,0,0.71882104,123.94945,-57.55402)" />
    <path
       style="fill:none;stroke:#000000;stroke-width:0.74849719px;stroke-linecap:butt;stroke-linejoin:miter;stroke-opacity:1"
       d="m 265.67209,355.36013 -0.6089,131.97104"
       id="path5730-4"
       inkscape:connector-curvature="0" />
    <path
       style="fill:none;stroke:#000000;stroke-width:0.74849719px;stroke-linecap:butt;stroke-linejoin:miter;stroke-opacity:1"
       d="m 329.31407,354.51776 -0.6089,131.97105"
       id="path5730-5-4"
       inkscape:connector-curvature="0" />
    <rect
       style="fill:#ff0000;fill-opacity:1;stroke:#000000;stroke-width:0.74849719"
       id="rect5754-7"
       width="20.702772"
       height="18.532104"
       x="307.68655"
       y="406.46378" />
    <rect
       style="fill:#ff0000;fill-opacity:1;stroke:#000000;stroke-width:0.74849719"
       id="rect5754-6-5"
       width="20.702772"
       height="18.532104"
       x="286.37488"
       y="406.18307" />
    <rect
       style="fill:#ff0000;fill-opacity:1;stroke:#000000;stroke-width:0.74849719"
       id="rect5754-2-6"
       width="20.702772"
       height="18.532104"
       x="266.28101"
       y="406.18307" />
    <rect
       style="fill:#ff0000;fill-opacity:1;stroke:#000000;stroke-width:0.74849719"
       id="rect5754-22-7"
       width="20.702772"
       height="18.532104"
       x="265.67212"
       y="425.27673" />
    <path
       sodipodi:type="arc"
       style="fill:#000000;fill-opacity:1;stroke:#000000"
       id="path5788-9"
       sodipodi:cx="70.3125"
       sodipodi:cy="685.56531"
       sodipodi:rx="5.46875"
       sodipodi:ry="5.859375"
       d="m 75.78125,685.56531 a 5.46875,5.859375 0 1 1 -10.9375,0 5.46875,5.859375 0 1 1 10.9375,0 z"
       transform="matrix(0.77939847,0,0,0.71882104,221.83093,-77.06889)" />
    <path
       style="fill:none;stroke:#000000;stroke-width:0.75541216px;stroke-linecap:butt;stroke-linejoin:miter;stroke-opacity:1"
       d="m 441.0402,489.55696 0.60545,-135.1892"
       id="path5730-8"
       inkscape:connector-curvature="0" />
    <path
       style="fill:none;stroke:#000000;stroke-width:0.75541216px;stroke-linecap:butt;stroke-linejoin:miter;stroke-opacity:1"
       d="m 372.32234,490.41986 0.60545,-135.1892"
       id="path5730-5-9"
       inkscape:connector-curvature="0" />
    <rect
       style="fill:#ff0000;fill-opacity:1;stroke:#000000;stroke-width:0.75541216"
       id="rect5754-9"
       width="20.585089"
       height="18.984016"
       x="-415.00269"
       y="-443.30215"
       transform="scale(-1,-1)" />
    <rect
       style="fill:#ff0000;fill-opacity:1;stroke:#000000;stroke-width:0.75541216"
       id="rect5754-6-2"
       width="20.585089"
       height="18.984016"
       x="-415.00269"
       y="-424.03049"
       transform="scale(-1,-1)" />
    <rect
       style="fill:#ff0000;fill-opacity:1;stroke:#000000;stroke-width:0.75541216"
       id="rect5754-2-1"
       width="20.585089"
       height="18.984016"
       x="-415.00269"
       y="-405.04654"
       transform="scale(-1,-1)" />
    <rect
       style="fill:#ff0000;fill-opacity:1;stroke:#000000;stroke-width:0.75541216"
       id="rect5754-22-3"
       width="20.585089"
       height="18.984016"
       x="-393.81213"
       y="-405.04654"
       transform="scale(-1,-1)" />
    <path
       sodipodi:type="arc"
       style="fill:#000000;fill-opacity:1;stroke:#000000"
       id="path5788-6"
       sodipodi:cx="70.3125"
       sodipodi:cy="685.56531"
       sodipodi:rx="5.46875"
       sodipodi:ry="5.859375"
       d="m 75.78125,685.56531 a 5.46875,5.859375 0 1 1 -10.9375,0 5.46875,5.859375 0 1 1 10.9375,0 z"
       transform="matrix(-0.77496804,0,0,-0.73634968,459.20006,900.08272)" />
    <path
       style="fill:none;stroke:#000000;stroke-width:0.7572841px;stroke-linecap:butt;stroke-linejoin:miter;stroke-opacity:1"
       d="M 554.23569,489.88681 554.8441,354.68674"
       id="path5730-4-5"
       inkscape:connector-curvature="0" />
    <path
       style="fill:none;stroke:#000000;stroke-width:0.7572841px;stroke-linecap:butt;stroke-linejoin:miter;stroke-opacity:1"
       d="m 490.65112,493.09353 0.6084,-135.20007"
       id="path5730-5-4-3"
       inkscape:connector-curvature="0" />
    <rect
       style="fill:#ff0000;fill-opacity:1;stroke:#000000;stroke-width:0.7572841"
       id="rect5754-7-9"
       width="20.685577"
       height="18.985542"
       x="-512.25616"
       y="-437.53281"
       transform="scale(-1,-1)" />
    <rect
       style="fill:#ff0000;fill-opacity:1;stroke:#000000;stroke-width:0.7572841"
       id="rect5754-6-5-3"
       width="20.685577"
       height="18.985542"
       x="-533.55017"
       y="-437.82037"
       transform="scale(-1,-1)" />
    <rect
       style="fill:#ff0000;fill-opacity:1;stroke:#000000;stroke-width:0.7572841"
       id="rect5754-2-6-1"
       width="20.685577"
       height="18.985542"
       x="-553.62726"
       y="-437.82037"
       transform="scale(-1,-1)" />
    <rect
       style="fill:#ff0000;fill-opacity:1;stroke:#000000;stroke-width:0.7572841"
       id="rect5754-22-7-8"
       width="20.685577"
       height="18.985542"
       x="-554.23572"
       y="-418.25955"
       transform="scale(-1,-1)" />
    <path
       sodipodi:type="arc"
       style="fill:#000000;fill-opacity:1;stroke:#000000"
       id="path5788-9-5"
       sodipodi:cx="70.3125"
       sodipodi:cy="685.56531"
       sodipodi:rx="5.46875"
       sodipodi:ry="5.859375"
       d="m 75.78125,685.56531 a 5.46875,5.859375 0 1 1 -10.9375,0 5.46875,5.859375 0 1 1 10.9375,0 z"
       transform="matrix(-0.77875118,0,0,-0.73640891,598.04044,932.89643)" />
    <path
       style="fill:none;stroke:#000000;stroke-width:0.74950665px;stroke-linecap:butt;stroke-linejoin:miter;stroke-opacity:1"
       d="m 211.15233,611.91348 0.60973,132.14903"
       id="path5730-3"
       inkscape:connector-curvature="0" />
    <path
       style="fill:none;stroke:#000000;stroke-width:0.74950665px;stroke-linecap:butt;stroke-linejoin:miter;stroke-opacity:1"
       d="M 141.9484,611.06997 142.55813,743.219"
       id="path5730-5-3"
       inkscape:connector-curvature="0" />
    <rect
       style="fill:#ff0000;fill-opacity:1;stroke:#000000;stroke-width:0.74950665"
       id="rect5754-70"
       width="20.730694"
       height="18.557098"
       x="-185.54382"
       y="643.4043"
       transform="scale(-1,1)" />
    <rect
       style="fill:#ff0000;fill-opacity:1;stroke:#000000;stroke-width:0.74950665"
       id="rect5754-6-25"
       width="20.730694"
       height="18.557098"
       x="-185.54382"
       y="662.24255"
       transform="scale(-1,1)" />
    <rect
       style="fill:#ff0000;fill-opacity:1;stroke:#000000;stroke-width:0.74950665"
       id="rect5754-2-8"
       width="20.730694"
       height="18.557098"
       x="-185.54382"
       y="680.79968"
       transform="scale(-1,1)" />
    <rect
       style="fill:#ff0000;fill-opacity:1;stroke:#000000;stroke-width:0.74950665"
       id="rect5754-22-4"
       width="20.730694"
       height="18.557098"
       x="-164.20343"
       y="680.79968"
       transform="scale(-1,1)" />
    <path
       sodipodi:type="arc"
       style="fill:#000000;fill-opacity:1;stroke:#000000"
       id="path5788-7"
       sodipodi:cx="70.3125"
       sodipodi:cy="685.56531"
       sodipodi:rx="5.46875"
       sodipodi:ry="5.859375"
       d="m 75.78125,685.56531 a 5.46875,5.859375 0 1 1 -10.9375,0 5.46875,5.859375 0 1 1 10.9375,0 z"
       transform="matrix(-0.7804496,0,0,0.71979051,230.05385,196.896)" />
    <path
       style="fill:none;stroke:#000000;stroke-width:0.74950665px;stroke-linecap:butt;stroke-linejoin:miter;stroke-opacity:1"
       d="m 553.76505,613.49204 0.60972,132.14902"
       id="path5730-4-1"
       inkscape:connector-curvature="0" />
    <path
       style="fill:none;stroke:#000000;stroke-width:0.74950665px;stroke-linecap:butt;stroke-linejoin:miter;stroke-opacity:1"
       d="m 490.02986,614.21104 0.60973,132.14903"
       id="path5730-5-4-9"
       inkscape:connector-curvature="0" />
    <rect
       style="fill:#ff0000;fill-opacity:1;stroke:#000000;stroke-width:0.74950665"
       id="rect5754-7-4"
       width="20.730694"
       height="18.557098"
       x="-511.69397"
       y="664.66467"
       transform="scale(-1,1)" />
    <rect
       style="fill:#ff0000;fill-opacity:1;stroke:#000000;stroke-width:0.74950665"
       id="rect5754-6-5-8"
       width="20.730694"
       height="18.557098"
       x="-533.03436"
       y="664.38361"
       transform="scale(-1,1)" />
    <rect
       style="fill:#ff0000;fill-opacity:1;stroke:#000000;stroke-width:0.74950665"
       id="rect5754-2-6-6"
       width="20.730694"
       height="18.557098"
       x="-553.1554"
       y="664.38361"
       transform="scale(-1,1)" />
    <rect
       style="fill:#ff0000;fill-opacity:1;stroke:#000000;stroke-width:0.74950665"
       id="rect5754-22-7-0"
       width="20.730694"
       height="18.557098"
       x="-553.76508"
       y="683.50293"
       transform="scale(-1,1)" />
    <path
       sodipodi:type="arc"
       style="fill:#000000;fill-opacity:1;stroke:#000000"
       id="path5788-9-8"
       sodipodi:cx="70.3125"
       sodipodi:cy="685.56531"
       sodipodi:rx="5.46875"
       sodipodi:ry="5.859375"
       d="m 75.78125,685.56531 a 5.46875,5.859375 0 1 1 -10.9375,0 5.46875,5.859375 0 1 1 10.9375,0 z"
       transform="matrix(-0.7804496,0,0,0.71979051,597.66536,180.47981)" />
    <path
       style="fill:none;stroke:#000000;stroke-width:0.75643098px;stroke-linecap:butt;stroke-linejoin:miter;stroke-opacity:1"
       d="M 378.16043,747.86986 377.55417,612.49833"
       id="path5730-8-6"
       inkscape:connector-curvature="0" />
    <path
       style="fill:none;stroke:#000000;stroke-width:0.75643098px;stroke-linecap:butt;stroke-linejoin:miter;stroke-opacity:1"
       d="M 446.97097,748.73393 446.3647,613.3624"
       id="path5730-5-9-0"
       inkscape:connector-curvature="0" />
    <rect
       style="fill:#ff0000;fill-opacity:1;stroke:#000000;stroke-width:0.75643098"
       id="rect5754-9-7"
       width="20.612852"
       height="19.009621"
       x="404.23306"
       y="-701.55273"
       transform="scale(1,-1)" />
    <rect
       style="fill:#ff0000;fill-opacity:1;stroke:#000000;stroke-width:0.75643098"
       id="rect5754-6-2-5"
       width="20.612852"
       height="19.009621"
       x="404.23306"
       y="-682.255"
       transform="scale(1,-1)" />
    <rect
       style="fill:#ff0000;fill-opacity:1;stroke:#000000;stroke-width:0.75643098"
       id="rect5754-2-1-2"
       width="20.612852"
       height="19.009621"
       x="404.23306"
       y="-663.24548"
       transform="scale(1,-1)" />
    <rect
       style="fill:#ff0000;fill-opacity:1;stroke:#000000;stroke-width:0.75643098"
       id="rect5754-22-3-0"
       width="20.612852"
       height="19.009621"
       x="425.45218"
       y="-663.24548"
       transform="scale(1,-1)" />
    <path
       sodipodi:type="arc"
       style="fill:#000000;fill-opacity:1;stroke:#000000"
       id="path5788-6-0"
       sodipodi:cx="70.3125"
       sodipodi:cy="685.56531"
       sodipodi:rx="5.46875"
       sodipodi:ry="5.859375"
       d="m 75.78125,685.56531 a 5.46875,5.859375 0 1 1 -10.9375,0 5.46875,5.859375 0 1 1 10.9375,0 z"
       transform="matrix(0.77601322,0,0,-0.7373428,359.97608,1158.9493)" />
    <path
       style="fill:none;stroke:#000000;stroke-width:0.75830543px;stroke-linecap:butt;stroke-linejoin:miter;stroke-opacity:1"
       d="M 263.24977,745.07516 262.64054,609.69274"
       id="path5730-4-5-1"
       inkscape:connector-curvature="0" />
    <path
       style="fill:none;stroke:#000000;stroke-width:0.75830543px;stroke-linecap:butt;stroke-linejoin:miter;stroke-opacity:1"
       d="M 327.70873,745.9393 327.0995,610.55687"
       id="path5730-5-4-3-7"
       inkscape:connector-curvature="0" />
    <rect
       style="fill:#ff0000;fill-opacity:1;stroke:#000000;stroke-width:0.75830543"
       id="rect5754-7-9-3"
       width="20.713476"
       height="19.011148"
       x="305.28589"
       y="-692.65057"
       transform="scale(1,-1)" />
    <rect
       style="fill:#ff0000;fill-opacity:1;stroke:#000000;stroke-width:0.75830543"
       id="rect5754-6-5-3-0"
       width="20.713476"
       height="19.011148"
       x="283.9632"
       y="-692.93848"
       transform="scale(1,-1)" />
    <rect
       style="fill:#ff0000;fill-opacity:1;stroke:#000000;stroke-width:0.75830543"
       id="rect5754-2-6-1-3"
       width="20.713476"
       height="19.011148"
       x="263.85901"
       y="-692.93848"
       transform="scale(1,-1)" />
    <rect
       style="fill:#ff0000;fill-opacity:1;stroke:#000000;stroke-width:0.75830543"
       id="rect5754-22-7-8-6"
       width="20.713476"
       height="19.011148"
       x="263.24976"
       y="-673.35132"
       transform="scale(1,-1)" />
    <path
       sodipodi:type="arc"
       style="fill:#000000;fill-opacity:1;stroke:#000000"
       id="path5788-9-5-0"
       sodipodi:cx="70.3125"
       sodipodi:cy="685.56531"
       sodipodi:rx="5.46875"
       sodipodi:ry="5.859375"
       d="m 75.78125,685.56531 a 5.46875,5.859375 0 1 1 -10.9375,0 5.46875,5.859375 0 1 1 10.9375,0 z"
       transform="matrix(0.77980146,0,0,-0.73740211,219.38594,1188.6823)" />
    <path
       style="fill:#00ff00;fill-opacity:1;stroke:#000000;stroke-width:0.78125"
       d="m 264.25239,664.07959 0,-8.59375 9.375,0 9.375,0 0,8.59375 0,8.59375 -9.375,0 -9.375,0 0,-8.59375 z"
       id="path6016"
       inkscape:connector-curvature="0" />
    <path
       style="fill:#00ff00;fill-opacity:1;stroke:#000000;stroke-width:0.78125"
       d="m 264.25239,683.61084 0,-8.59375 9.76563,0 9.76562,0 0,8.59375 0,8.59375 -9.76562,0 -9.76563,0 0,-8.59375 z m 13.28125,3.125 c 3.15652,-3.15651 1.1386,-8.59375 -3.18938,-8.59375 -2.72608,0 -5.64662,3.4077 -4.95954,5.78682 0.61394,2.12586 3.23801,4.36943 5.11047,4.36943 0.81177,0 2.17908,-0.70312 3.03845,-1.5625 z"
       id="path6018"
       inkscape:connector-curvature="0" />
    <path
       style="fill:#00ff00;fill-opacity:1;stroke:#000000;stroke-width:0.78125"
       d="m 285.34614,683.61084 0,-8.59375 9.375,0 9.375,0 0,8.59375 0,8.59375 -9.375,0 -9.375,0 0,-8.59375 z"
       id="path6020"
       inkscape:connector-curvature="0" />
    <path
       style="fill:#00ff00;fill-opacity:1;stroke:#000000;stroke-width:0.78125"
       d="m 305.65864,683.22022 0,-8.98438 9.76563,0 9.76562,0 0,8.98438 0,8.98437 -9.76562,0 -9.76563,0 0,-8.98437 z"
       id="path6022"
       inkscape:connector-curvature="0" />
    <path
       style="fill:#00ff00;fill-opacity:1;stroke:#000000;stroke-width:0.78125"
       d="m 404.87739,692.20459 0,-8.59375 9.76563,0 9.76562,0 0,8.59375 0,8.59375 -9.76562,0 -9.76563,0 0,-8.59375 z"
       id="path6024"
       inkscape:connector-curvature="0" />
    <path
       style="fill:#00ff00;fill-opacity:1;stroke:#000000;stroke-width:0.78125"
       d="m 409.7927,683.03076 c 2.91826,-0.15072 7.48857,-0.1496 10.15625,0.002 2.66767,0.15209 0.28001,0.27541 -5.30593,0.27404 -5.58594,-10e-4 -7.76858,-0.1258 -4.85032,-0.27653 z"
       id="path6026"
       inkscape:connector-curvature="0" />
    <path
       style="fill:#00ff00;fill-opacity:1;stroke:#000000;stroke-width:0.78125"
       d="m 404.87739,672.67334 0,-8.59375 9.76563,0 9.76562,0 0,8.59375 0,8.59375 -9.76562,0 -9.76563,0 0,-8.59375 z"
       id="path6028"
       inkscape:connector-curvature="0" />
    <path
       style="fill:#00ff00;fill-opacity:1;stroke:#000000;stroke-width:0.78125"
       d="m 404.87739,653.92334 0,-8.59375 9.76563,0 9.76562,0 0,8.59375 0,8.59375 -9.76562,0 -9.76563,0 0,-8.59375 z m 12.92614,2.76989 c 2.15787,-2.15787 2.30309,-2.92151 1.01941,-5.36031 -1.14393,-2.17329 -2.17904,-2.85142 -4.37523,-2.86637 -4.17823,-0.0284 -6.34088,5.56123 -3.32032,8.58179 2.09009,2.09009 4.35121,1.96982 6.67614,-0.35511 z"
       id="path6030"
       inkscape:connector-curvature="0" />
    <path
       style="fill:#00ff00;fill-opacity:1;stroke:#000000;stroke-width:0.78125"
       d="m 425.97114,653.92334 0,-8.59375 9.76563,0 9.76562,0 0,8.59375 0,8.59375 -9.76562,0 -9.76563,0 0,-8.59375 z"
       id="path6032"
       inkscape:connector-curvature="0" />
    <path
       style="fill:#00ff00;fill-opacity:1;stroke:#000000;stroke-width:0.78125"
       d="m 491.59614,674.23584 0,-8.59375 9.76563,0 9.76562,0 0,8.59375 0,8.59375 -9.76562,0 -9.76563,0 0,-8.59375 z"
       id="path6034"
       inkscape:connector-curvature="0" />
    <path
       style="fill:#00ff00;fill-opacity:1;stroke:#000000;stroke-width:0.78125"
       d="m 512.68989,673.45459 0,-8.59375 9.375,0 9.375,0 0,8.59375 0,8.59375 -9.375,0 -9.375,0 0,-8.59375 z"
       id="path6036"
       inkscape:connector-curvature="0" />
    <path
       style="fill:#00ff00;fill-opacity:1;stroke:#000000;stroke-width:0.78125"
       d="m 533.00239,673.45459 0,-8.59375 9.76563,0 9.76562,0 0,8.59375 0,8.59375 -9.76562,0 -9.76563,0 0,-8.59375 z m 13.28125,3.90625 c 2.18035,-2.18034 1.97779,-5.02868 -0.49598,-6.97455 -1.13217,-0.89056 -2.5544,-1.6192 -3.16051,-1.6192 -1.65498,0 -4.93726,3.612 -4.93726,5.43324 0,2.19642 2.71656,4.72301 5.07813,4.72301 1.07422,0 2.65625,-0.70312 3.51562,-1.5625 z"
       id="path6038"
       inkscape:connector-curvature="0" />
    <path
       style="fill:#00ff00;fill-opacity:1;stroke:#000000;stroke-width:0.78125"
       d="m 533.78364,692.98584 0,-8.59375 9.76563,0 9.76562,0 0,8.59375 0,8.59375 -9.76562,0 -9.76563,0 0,-8.59375 z"
       id="path6040"
       inkscape:connector-curvature="0" />
    <path
       style="fill:#00ff00;fill-opacity:1;stroke:#000000;stroke-width:0.78125"
       d="m 143.93989,689.86084 0,-8.59375 9.76563,0 9.76562,0 0,8.59375 0,8.59375 -9.76562,0 -9.76563,0 0,-8.59375 z"
       id="path6042"
       inkscape:connector-curvature="0" />
    <path
       style="fill:#00ff00;fill-opacity:1;stroke:#000000;stroke-width:0.78125"
       d="m 165.81489,689.86084 0,-8.59375 9.375,0 9.375,0 0,8.59375 0,8.59375 -9.375,0 -9.375,0 0,-8.59375 z m 12.82449,3.97933 c 2.07666,-2.29468 1.37699,-6.45026 -1.30105,-7.72746 -1.7725,-0.84534 -2.52438,-0.84534 -4.29687,0 -4.36129,2.07997 -2.69769,9.21688 2.14843,9.21688 1.15587,0 2.70814,-0.67024 3.44949,-1.48942 z"
       id="path6044"
       inkscape:connector-curvature="0" />
    <path
       style="fill:#00ff00;fill-opacity:1;stroke:#000000;stroke-width:0.78125"
       d="m 165.81489,671.50147 0,-8.20313 9.375,0 9.375,0 0,8.20313 0,8.20312 -9.375,0 -9.375,0 0,-8.20312 z"
       id="path6046"
       inkscape:connector-curvature="0" />
    <path
       style="fill:#00ff00;fill-opacity:1;stroke:#000000;stroke-width:0.78125"
       d="m 165.81489,652.36084 0,-8.59375 9.375,0 9.375,0 0,8.59375 0,8.59375 -9.375,0 -9.375,0 0,-8.59375 z"
       id="path6048"
       inkscape:connector-curvature="0" />
  </g>
</svg>
